<?xml version="1.0" encoding="UTF-8"?>
<svg width="35px" height="34px" viewBox="0 0 35 34" version="1.1"
     xmlns="http://www.w3.org/2000/svg">
    <!-- Generator: Sketch 46.2 (44496) - http://www.bohemiancoding.com/sketch -->
    <title>closee</title>
    <desc>Created with Sketch.</desc>
    <defs></defs>
    <g id="Page-1" stroke="none" stroke-width="1" fill="none"
       fill-rule="evenodd">
        <g id="closee" fill-rule="nonzero" fill="#9B9B9B">
            <path d="M17.2342736,33.93 C7.9195231,33.93 0.340998156,26.335 0.340998156,17 C0.340998156,7.665 7.9195231,0.07 17.2342736,0.07 C26.5490242,0.07 34.1275491,7.665 34.1275491,17 C34.1275491,26.335 26.5490242,33.93 17.2342736,33.93 L17.2342736,33.93 Z M17.2342736,1.93 C8.94229967,1.93 2.19696345,8.69 2.19696345,17 C2.19696345,25.31 8.94229967,32.07 17.2342736,32.07 C25.5262476,32.07 32.2715838,25.31 32.2715838,17 C32.2715838,8.69 25.5262476,1.93 17.2342736,1.93 L17.2342736,1.93 Z"
                  id="Fill-52"></path>
            <polyline id="Fill-53"
                      points="9.90720206 25.658 8.59605239 24.342 24.5613452 8.342 25.8724949 9.658 9.90720206 25.658"></polyline>
            <polyline id="Fill-54"
                      points="24.5613452 25.658 8.59605239 9.658 9.90720206 8.342 25.8724949 24.342 24.5613452 25.658"></polyline>
        </g>
    </g>
</svg>
