<?xml version="1.0" encoding="UTF-8"?>
<svg width="22px" height="30px" viewBox="0 0 22 30" version="1.1"
     xmlns="http://www.w3.org/2000/svg">
    <!-- Generator: Sketch 46.2 (44496) - http://www.bohemiancoding.com/sketch -->
    <title>lock</title>
    <desc>Created with Sketch.</desc>
    <defs></defs>
    <g id="Grid-Quiz" stroke="none" stroke-width="1" fill="none"
       fill-rule="evenodd">
        <g id="quiz-list" transform="translate(-1230.000000, -21.000000)"
           fill="#FFFFFF">
            <g id="header-footer">
                <g id="lock" transform="translate(1230.000000, 21.000000)">
                    <path d="M19.93,13 L18.07,13 L18.07,9 C18.07,5.102 14.898,1.93 11,1.93 C7.102,1.93 3.93,5.102 3.93,9 L3.93,13 L2.07,13 L2.07,9 C2.07,4.076 6.076,0.07 11,0.07 C15.924,0.07 19.93,4.076 19.93,9 L19.93,13"
                          id="Fill-66" opacity="0.5"></path>
                    <path d="M19,30 L3,30 C1.346,30 0,28.654 0,27 L0,15 C0,13.346 1.346,12 3,12 L19,12 C20.654,12 22,13.346 22,15 L22,27 C22,28.654 20.654,30 19,30 L19,30 Z M3,14 C2.448,14 2,14.449 2,15 L2,27 C2,27.551 2.448,28 3,28 L19,28 C19.552,28 20,27.551 20,27 L20,15 C20,14.449 19.552,14 19,14 L3,14 L3,14 Z"
                          id="Fill-67" opacity="0.649999976"></path>
                    <path d="M11.8052383,19.83143 C12.5089519,19.5217597 13,18.8184889 13,18 C13,16.895 12.105,16 11,16 C9.895,16 9,16.895 9,18 C9,18.8184889 9.49104808,19.5217597 10.1947617,19.83143 L9.5,24 L12.5,24 L11.8052383,19.83143 Z"
                          id="Combined-Shape"></path>
                </g>
            </g>
        </g>
    </g>
</svg>
