<svg xmlns="http://www.w3.org/2000/svg" width="207" height="177"
     viewBox="0 0 207 177">
  <g fill="none" fill-rule="evenodd">
    <path fill="#F7BC6D"
          d="M24.5323014,176.751905 C18.5932875,177.167532 12.7864565,174.872667 8.74957009,170.514554 C0.670314796,161.033781 5.05440682,143.756319 21.2755473,120.615747 C23.2817401,117.80824 27.1933696,117.151989 30.0124163,119.149969 C32.831463,121.14795 33.4904114,125.043567 31.4842187,127.851074 C16.1398966,149.681802 16.0772668,160.160552 18.144053,162.593118 C24.4070416,169.766072 65.5548767,157.790358 122.923852,109.326142 C180.292828,60.8619249 198.831274,22.0032286 192.756175,15.1421426 C190.752019,12.7719493 180.793867,11.0878645 157.683439,21.8161081 C155.651193,22.8132034 153.236687,22.6395731 151.36936,21.3620544 C149.502032,20.0845358 148.473015,17.902305 148.678418,15.6553889 C148.883822,13.4084728 150.291621,11.4471851 152.359899,10.526503 C177.411853,-1.13734327 194.321922,-2.32243995 202.463808,7.03358644 C219.373877,26.7436154 179.22812,78.2017605 131.128367,118.869288 C93.2372863,150.866899 49.5842558,176.751905 24.5323014,176.751905 Z"/>
    <circle cx="23.6" cy="124.4" r="23.6" fill="#A9AA00"/>
    <path fill="#FFF"
          d="M39.7720109,113.80933 C38.3726219,112.463557 36.1110733,112.463557 34.7116844,113.80933 L21.2601836,126.623829 L14.0219951,119.69038 C12.6087232,118.377515 10.3749406,118.377515 8.96166867,119.69038 C8.34797814,120.379722 8.00747814,121.25726 8.00084718,122.166612 C7.97985061,123.09237 8.3499022,123.986462 9.02572343,124.642844 L18.1855549,133.371561 L18.1855549,133.371561 C18.2995818,133.563728 18.4519964,133.732072 18.6339383,133.866807 C18.6339383,133.866807 18.6339383,133.866807 19.0182668,133.866807 L19.0182668,133.866807 C20.4432787,134.714839 22.2790631,134.53742 23.5021004,133.433467 L26.1283458,130.957235 L39.7079561,118.885605 C40.4010737,118.235537 40.7936556,117.342805 40.7968871,116.409373 C40.8381529,115.443611 40.4676891,114.503769 39.7720109,113.80933 L39.7720109,113.80933 Z"/>
    <path fill="#F29100"
          d="M180.8,83.6093546 C180.788571,123.48899 149.952426,156.653143 109.991072,159.764081 C70.0297189,162.875019 34.3841141,134.886381 28.1381992,95.4938715 C27.5076304,91.5635726 27.1939275,87.5894041 27.2,83.6093546 C27.2,41.4096333 61.5846003,7.2 104.000045,7.2 C146.415489,7.2 180.8,41.4096333 180.8,83.6093546 Z"/>
    <path fill="#F29100"
          d="M125.727359,147.533769 L152.917972,158.708646 C155.596646,159.706762 158.633471,159.158927 160.751674,157.295466 C162.869876,155.432005 163.702129,152.576071 162.898526,149.928386 L153.941618,127.885635 C153.032515,126.1528 151.420548,124.855287 149.484276,124.297808 C147.548003,123.740328 145.458024,123.971999 143.705152,124.938414 L125.151558,135.744888 C122.860247,136.951987 121.485153,139.305942 121.607542,141.811713 C121.729931,144.317485 123.328438,146.537668 125.727359,147.533769 L125.727359,147.533769 Z"/>
    <path fill="#FFF" fill-rule="nonzero"
          d="M72.8,62.7677097 C72.9043994,58.3152134 74.2746488,53.9834846 76.7517239,50.2752422 C79.6234276,45.8744932 83.6026766,42.2995959 88.2932665,39.9064943 C93.8386079,37.0992211 100.017898,35.7652807 106.232838,36.0338294 C111.942974,35.9129009 117.605855,37.087713 122.792443,39.4692579 C127.273425,41.5391677 131.109448,44.7763817 133.894905,48.8386085 C136.369188,52.6733872 137.656199,57.1481465 137.595726,61.7058499 C137.664138,65.0427076 136.910355,68.3454227 135.400324,71.3250499 C133.995225,73.9536367 132.197511,76.3545622 130.068633,78.4457563 C127.998682,80.4445511 124.360587,83.8175173 119.028896,88.5646549 C117.795572,89.6667331 116.622979,90.8344006 115.516253,92.0625458 C114.732824,92.9130562 114.058582,93.8572275 113.509028,94.873351 C113.085127,95.6677687 112.748638,96.5054585 112.505416,97.3718444 C112.505416,98.1838548 111.940884,99.6829509 111.439078,101.80667 C111.310524,103.713497 110.424201,105.490702 108.976231,106.745027 C107.528262,107.999352 105.638031,108.62738 103.723807,108.49014 C101.626369,108.53004 99.5977858,107.74446 98.0784875,106.303959 C96.5136528,104.604652 95.6803897,102.362049 95.7576338,100.057725 C95.6912255,96.8535609 96.2669788,93.6683652 97.4512297,90.6883744 C98.5406456,88.148003 100.045569,85.805116 101.90476,83.7550549 C103.786533,81.7562602 106.295564,79.3826913 109.431853,76.6343485 L115.70443,71.2001252 C116.905934,69.9660073 117.939307,68.5799621 118.777993,67.0776109 C119.631317,65.5966056 120.064907,63.9127082 120.032509,62.2055486 C120.097752,58.8746683 118.700442,55.6811971 116.206237,53.4608214 C113.525182,50.9100016 109.940232,49.5179676 106.232838,49.5881565 C102.366839,49.2818012 98.5476787,50.5947831 95.694908,53.2109721 C93.0536285,56.2810667 91.1068637,59.8813029 89.9868625,63.7671071 C88.5441696,68.576707 85.7842355,71.0127382 81.6443343,71.0127382 C79.2748293,71.1318181 76.97533,70.192983 75.3717568,68.4517823 C73.7398115,67.0089337 72.8041263,64.940891 72.8,62.7677097 L72.8,62.7677097 Z M104.162888,133.412613 C101.630625,133.465181 99.169929,132.57414 97.2630524,130.91412 C95.2726173,129.090526 94.1934823,126.484043 94.314941,123.793413 C94.2581383,121.212411 95.2804703,118.723873 97.1376009,116.922556 C99.0236507,115.119544 101.548754,114.131705 104.162888,114.174213 C106.735112,114.140283 109.21196,115.142832 111.030956,116.954189 C112.849953,118.765547 113.856731,121.231992 113.822657,123.793413 C113.951709,126.467205 112.869711,129.057679 110.874546,130.851657 C109.140255,132.537665 106.836105,133.517828 104.413791,133.6 L104.162888,133.412613 Z"/>
    <path fill="#F7BC6D"
          d="M25.2143855,176.751738 C19.3000717,177.16881 13.5173911,174.865962 9.49729393,170.49269 C7.25832509,167.865539 7.56548619,163.914337 10.1833574,161.667432 C12.8012287,159.420527 16.7384755,159.728777 18.9774444,162.355927 C25.2143855,169.553833 66.1910884,157.53646 123.321469,108.903657 C180.451849,60.2708546 198.913195,21.2769856 192.863362,14.3920328 C190.867541,12.0135946 180.950804,10.3236516 157.936492,21.0892142 C155.912698,22.0897779 153.508234,21.9155436 151.648672,20.633581 C149.789111,19.3516184 148.764374,17.1617966 148.968923,14.9070644 C149.173472,12.6523322 150.575416,10.6842221 152.635092,9.76033729 C177.582856,-1.94408246 194.422597,-3.13330158 202.530621,6.25527041 C219.245623,26.2216335 179.26683,77.8587794 131.367123,118.667772 C93.6336292,150.776689 50.1621498,176.751738 25.2143855,176.751738 Z"/>
    <circle cx="176.4" cy="62.8" r="17.2" fill="#EA5B25"/>
    <path fill="#FFF"
          d="M180.016281,63.1402423 L183.967184,59.4594978 C184.461651,58.9982824 184.740079,58.3684531 184.740079,57.7111441 C184.740079,57.0538352 184.461651,56.4240059 183.967184,55.9627905 C183.491424,55.4980284 182.837125,55.2357051 182.153655,55.2357051 C181.470185,55.2357051 180.815886,55.4980284 180.340125,55.9627905 L176.389222,59.643535 L172.438318,55.9014448 C171.430919,54.9661851 169.818658,54.9661851 168.811259,55.9014448 C167.815939,56.8763963 167.815939,58.4232005 168.811259,59.398152 L172.697394,63.1402423 L168.74649,66.8209867 C167.75117,67.7959383 167.75117,69.3427425 168.74649,70.317694 C169.233442,70.7860267 169.898416,71.0497398 170.592404,71.0497398 C171.286392,71.0497398 171.951366,70.7860267 172.438318,70.317694 L176.389222,66.6369495 L180.275356,70.3790397 C180.911235,71.0545845 181.888089,71.3437696 182.81696,71.1314487 C183.745832,70.9191279 184.475901,70.2397752 184.716474,69.3638919 C184.957046,68.4880086 184.66906,67.5578102 183.967184,66.9436782 L180.016281,63.1402423 Z"/>
  </g>
</svg>
