<?xml version="1.0" encoding="UTF-8"?>
<svg width="171px" height="171px" viewBox="0 0 171 171" version="1.1" xmlns="http://www.w3.org/2000/svg">
    <!-- Generator: Sketch 46.2 (44496) - http://www.bohemiancoding.com/sketch -->
    <title>Tech Pattern 256 Copy@1x</title>
    <desc>Created with Sketch.</desc>
    <defs></defs>
    <g id="Symbols" stroke="none" stroke-width="1" fill="none" fill-rule="evenodd" opacity="0.04">
        <g id="Tech-Pattern-256-Copy" fill="#000000">
            <g id="Group" transform="translate(-24.000000, -25.000000)">
                <path d="M71.9114252,136.103738 L71.9114252,149.306863 L60.1926752,149.306863 C60.1926752,145.921429 61.3254764,142.97875 63.5911127,140.478738 C65.856749,137.978725 68.6301588,136.520406 71.9114252,136.103738 L71.9114252,136.103738 Z M60.1926752,159.306863 L60.1926752,152.666238 L86.9114252,152.666238 L86.9114252,159.306863 C86.9114252,162.952714 85.5963342,166.090704 82.9661127,168.720925 C80.3358912,171.351147 77.1979018,172.666238 73.5520502,172.666238 C69.9061986,172.666238 66.7682092,171.351147 64.1379877,168.720925 C61.5077662,166.090704 60.1926752,162.952714 60.1926752,159.306863 L60.1926752,159.306863 Z M75.1926752,136.103738 C78.4739416,136.520406 81.2473514,137.978725 83.5129877,140.478738 C85.778624,142.97875 86.9114252,145.921429 86.9114252,149.306863 L75.1926752,149.306863 L75.1926752,136.103738 Z"
                      id=""
                      transform="translate(76.872363, 155.205300) rotate(-17.000000) translate(-76.872363, -155.205300) "></path>
                <path d="M201.473958,202.307292 L201.473958,175.666667 L176.473958,175.666667 L176.473958,202.307292 L201.473958,202.307292 Z M188.973958,209.026042 C189.651045,209.026042 190.236977,208.778648 190.731771,208.283854 C191.226565,207.78906 191.473958,207.203128 191.473958,206.526042 C191.473958,205.848955 191.226565,205.263023 190.731771,204.768229 C190.236977,204.273435 189.651045,204.026042 188.973958,204.026042 C188.296872,204.026042 187.71094,204.273435 187.216146,204.768229 C186.721352,205.263023 186.473958,205.848955 186.473958,206.526042 C186.473958,207.203128 186.721352,207.78906 187.216146,208.283854 C187.71094,208.778648 188.296872,209.026042 188.973958,209.026042 L188.973958,209.026042 Z M200.692708,170.666667 C201.838547,170.666667 202.8151,171.070308 203.622396,171.877604 C204.429692,172.6849 204.833333,173.661453 204.833333,174.807292 L204.833333,206.526042 C204.833333,207.671881 204.429692,208.648433 203.622396,209.455729 C202.8151,210.263025 201.838547,210.666667 200.692708,210.666667 L177.333333,210.666667 C176.187494,210.666667 175.210942,210.263025 174.403646,209.455729 C173.59635,208.648433 173.192708,207.671881 173.192708,206.526042 L173.192708,174.807292 C173.192708,173.661453 173.59635,172.6849 174.403646,171.877604 C175.210942,171.070308 176.187494,170.666667 177.333333,170.666667 L200.692708,170.666667 Z"
                      id=""></path>
                <path d="M30.8072917,31.640625 L30.8072917,5 L5.80729167,5 L5.80729167,31.640625 L30.8072917,31.640625 Z M18.3072917,38.359375 C18.9843784,38.359375 19.57031,38.1119816 20.0651042,37.6171875 C20.5598983,37.1223934 20.8072917,36.5364617 20.8072917,35.859375 C20.8072917,35.1822883 20.5598983,34.5963566 20.0651042,34.1015625 C19.57031,33.6067684 18.9843784,33.359375 18.3072917,33.359375 C17.6302049,33.359375 17.0442733,33.6067684 16.5494792,34.1015625 C16.054685,34.5963566 15.8072917,35.1822883 15.8072917,35.859375 C15.8072917,36.5364617 16.054685,37.1223934 16.5494792,37.6171875 C17.0442733,38.1119816 17.6302049,38.359375 18.3072917,38.359375 L18.3072917,38.359375 Z M30.0260417,0 C31.1718807,0 32.1484335,0.403641797 32.9557292,1.2109375 C33.7630249,2.0182332 34.1666667,2.99478594 34.1666667,4.140625 L34.1666667,35.859375 C34.1666667,37.0052141 33.7630249,37.9817668 32.9557292,38.7890625 C32.1484335,39.5963582 31.1718807,40 30.0260417,40 L6.66666667,40 C5.5208276,40 4.54427487,39.5963582 3.73697917,38.7890625 C2.92968346,37.9817668 2.52604167,37.0052141 2.52604167,35.859375 L2.52604167,4.140625 C2.52604167,2.99478594 2.92968346,2.0182332 3.73697917,1.2109375 C4.54427487,0.403641797 5.5208276,0 6.66666667,0 L30.0260417,0 Z"
                      id=""></path>
                <path d="M201.473958,31.640625 L201.473958,5 L176.473958,5 L176.473958,31.640625 L201.473958,31.640625 Z M188.973958,38.359375 C189.651045,38.359375 190.236977,38.1119816 190.731771,37.6171875 C191.226565,37.1223934 191.473958,36.5364617 191.473958,35.859375 C191.473958,35.1822883 191.226565,34.5963566 190.731771,34.1015625 C190.236977,33.6067684 189.651045,33.359375 188.973958,33.359375 C188.296872,33.359375 187.71094,33.6067684 187.216146,34.1015625 C186.721352,34.5963566 186.473958,35.1822883 186.473958,35.859375 C186.473958,36.5364617 186.721352,37.1223934 187.216146,37.6171875 C187.71094,38.1119816 188.296872,38.359375 188.973958,38.359375 L188.973958,38.359375 Z M200.692708,0 C201.838547,0 202.8151,0.403641797 203.622396,1.2109375 C204.429692,2.0182332 204.833333,2.99478594 204.833333,4.140625 L204.833333,35.859375 C204.833333,37.0052141 204.429692,37.9817668 203.622396,38.7890625 C202.8151,39.5963582 201.838547,40 200.692708,40 L177.333333,40 C176.187494,40 175.210942,39.5963582 174.403646,38.7890625 C173.59635,37.9817668 173.192708,37.0052141 173.192708,35.859375 L173.192708,4.140625 C173.192708,2.99478594 173.59635,2.0182332 174.403646,1.2109375 C175.210942,0.403641797 176.187494,0 177.333333,0 L200.692708,0 Z"
                      id=""></path>
                <path d="M30.8072917,202.307292 L30.8072917,175.666667 L5.80729167,175.666667 L5.80729167,202.307292 L30.8072917,202.307292 Z M18.3072917,209.026042 C18.9843784,209.026042 19.57031,208.778648 20.0651042,208.283854 C20.5598983,207.78906 20.8072917,207.203128 20.8072917,206.526042 C20.8072917,205.848955 20.5598983,205.263023 20.0651042,204.768229 C19.57031,204.273435 18.9843784,204.026042 18.3072917,204.026042 C17.6302049,204.026042 17.0442733,204.273435 16.5494792,204.768229 C16.054685,205.263023 15.8072917,205.848955 15.8072917,206.526042 C15.8072917,207.203128 16.054685,207.78906 16.5494792,208.283854 C17.0442733,208.778648 17.6302049,209.026042 18.3072917,209.026042 L18.3072917,209.026042 Z M30.0260417,170.666667 C31.1718807,170.666667 32.1484335,171.070308 32.9557292,171.877604 C33.7630249,172.6849 34.1666667,173.661453 34.1666667,174.807292 L34.1666667,206.526042 C34.1666667,207.671881 33.7630249,208.648433 32.9557292,209.455729 C32.1484335,210.263025 31.1718807,210.666667 30.0260417,210.666667 L6.66666667,210.666667 C5.5208276,210.666667 4.54427487,210.263025 3.73697917,209.455729 C2.92968346,208.648433 2.52604167,207.671881 2.52604167,206.526042 L2.52604167,174.807292 C2.52604167,173.661453 2.92968346,172.6849 3.73697917,171.877604 C4.54427487,171.070308 5.5208276,170.666667 6.66666667,170.666667 L30.0260417,170.666667 Z"
                      id=""></path>
                <path d="M59.578521,72.219146 C59.1097686,71.8545608 56.987394,70.2009315 53.2113335,67.2582085 C49.4352729,64.3154854 46.5576975,62.0889452 44.578521,60.578521 L59.578521,48.937896 L74.578521,60.578521 C72.5993444,62.0889452 69.7347897,64.3024647 65.984771,67.219146 C62.2347522,70.1358272 60.0993569,71.8024772 59.578521,72.219146 L59.578521,72.219146 Z M59.578521,76.516021 L71.844146,66.906646 L74.578521,69.016021 L59.578521,80.656646 L44.578521,69.016021 L47.312896,66.906646 L59.578521,76.516021 Z"
                      id=""
                      transform="translate(62.078521, 67.258208) rotate(25.000000) translate(-62.078521, -67.258208) "></path>
                <path d="M108.227512,111.227512 L108.227512,94.5087619 L91.5087619,94.5087619 L91.5087619,111.227512 L108.227512,111.227512 Z M114.868137,101.227512 L111.508762,101.227512 L111.508762,104.508762 L114.868137,104.508762 L114.868137,107.868137 L111.508762,107.868137 L111.508762,111.227512 C111.508762,112.112933 111.183244,112.881154 110.532199,113.532199 C109.881154,114.183244 109.112933,114.508762 108.227512,114.508762 L104.868137,114.508762 L104.868137,117.868137 L101.508762,117.868137 L101.508762,114.508762 L98.2275119,114.508762 L98.2275119,117.868137 L94.8681369,117.868137 L94.8681369,114.508762 L91.5087619,114.508762 C90.6233408,114.508762 89.8551193,114.183244 89.2040744,113.532199 C88.5530295,112.881154 88.2275119,112.112933 88.2275119,111.227512 L88.2275119,107.868137 L84.8681369,107.868137 L84.8681369,104.508762 L88.2275119,104.508762 L88.2275119,101.227512 L84.8681369,101.227512 L84.8681369,97.8681369 L88.2275119,97.8681369 L88.2275119,94.5087619 C88.2275119,93.6233408 88.5530295,92.8551193 89.2040744,92.2040744 C89.8551193,91.5530295 90.6233408,91.2275119 91.5087619,91.2275119 L94.8681369,91.2275119 L94.8681369,87.8681369 L98.2275119,87.8681369 L98.2275119,91.2275119 L101.508762,91.2275119 L101.508762,87.8681369 L104.868137,87.8681369 L104.868137,91.2275119 L108.227512,91.2275119 C109.112933,91.2275119 109.881154,91.5530295 110.532199,92.2040744 C111.183244,92.8551193 111.508762,93.6233408 111.508762,94.5087619 L111.508762,97.8681369 L114.868137,97.8681369 L114.868137,101.227512 Z M101.508762,104.508762 L101.508762,101.227512 L98.2275119,101.227512 L98.2275119,104.508762 L101.508762,104.508762 Z M104.868137,97.8681369 L104.868137,107.868137 L94.8681369,107.868137 L94.8681369,97.8681369 L104.868137,97.8681369 Z"
                      id=""
                      transform="translate(102.368137, 105.368137) rotate(18.000000) translate(-102.368137, -105.368137) "></path>
                <path d="M28.0833333,128 L28.0833333,104.640625 L10.5833333,104.640625 L10.5833333,128 L28.0833333,128 Z M22.6927083,133 L22.6927083,131.359375 L15.9739583,131.359375 L15.9739583,133 L22.6927083,133 Z M25.9739583,99.640625 C27.3281318,99.640625 28.4999951,100.135412 29.4895833,101.125 C30.4791716,102.114588 30.9739583,103.286452 30.9739583,104.640625 L30.9739583,131.359375 C30.9739583,132.713548 30.4791716,133.885412 29.4895833,134.875 C28.4999951,135.864588 27.3281318,136.359375 25.9739583,136.359375 L12.6927083,136.359375 C11.3385349,136.359375 10.1666716,135.864588 9.17708333,134.875 C8.18749505,133.885412 7.69270833,132.713548 7.69270833,131.359375 L7.69270833,104.640625 C7.69270833,103.286452 8.18749505,102.114588 9.17708333,101.125 C10.1666716,100.135412 11.3385349,99.640625 12.6927083,99.640625 L25.9739583,99.640625 Z"
                      id=""
                      transform="translate(23.513021, 118.820312) rotate(-31.000000) translate(-23.513021, -118.820312) "></path>
                <path d="M198.75,128 L198.75,104.640625 L181.25,104.640625 L181.25,128 L198.75,128 Z M193.359375,133 L193.359375,131.359375 L186.640625,131.359375 L186.640625,133 L193.359375,133 Z M196.640625,99.640625 C197.994798,99.640625 199.166662,100.135412 200.15625,101.125 C201.145838,102.114588 201.640625,103.286452 201.640625,104.640625 L201.640625,131.359375 C201.640625,132.713548 201.145838,133.885412 200.15625,134.875 C199.166662,135.864588 197.994798,136.359375 196.640625,136.359375 L183.359375,136.359375 C182.005202,136.359375 180.833338,135.864588 179.84375,134.875 C178.854162,133.885412 178.359375,132.713548 178.359375,131.359375 L178.359375,104.640625 C178.359375,103.286452 178.854162,102.114588 179.84375,101.125 C180.833338,100.135412 182.005202,99.640625 183.359375,99.640625 L196.640625,99.640625 Z"
                      id=""
                      transform="translate(194.179688, 118.820312) rotate(-31.000000) translate(-194.179688, -118.820312) "></path>
                <path d="M155.359375,152.333333 L155.359375,135.692708 L128.640625,135.692708 L128.640625,152.333333 L155.359375,152.333333 Z M145.359375,157.333333 L145.359375,155.692708 L138.640625,155.692708 L138.640625,157.333333 L145.359375,157.333333 Z M158.640625,157.333333 L162,157.333333 L162,160.692708 L122,160.692708 L122,157.333333 L125.359375,157.333333 L125.359375,132.333333 L158.640625,132.333333 L158.640625,157.333333 Z"
                      id=""></path>
                <path d="M142.244352,72.2443524 C142.244352,75.0047829 143.220905,77.3615302 145.17404,79.3146649 C147.127175,81.2677997 149.483922,82.2443524 152.244352,82.2443524 C155.004783,82.2443524 157.36153,81.2677997 159.314665,79.3146649 C161.2678,77.3615302 162.244352,75.0047829 162.244352,72.2443524 C162.244352,69.483922 161.2678,67.1271747 159.314665,65.1740399 C157.36153,63.2209052 155.004783,62.2443524 152.244352,62.2443524 C149.483922,62.2443524 147.127175,63.2209052 145.17404,65.1740399 C143.220905,67.1271747 142.244352,69.483922 142.244352,72.2443524 L142.244352,72.2443524 Z M165.603727,72.2443524 C165.603727,76.5152071 163.911036,80.0047556 160.525602,82.7131024 L158.884977,92.2443524 L145.603727,92.2443524 L143.963102,82.7131024 C140.577669,80.1089228 138.884977,76.6193743 138.884977,72.2443524 C138.884977,67.8693306 140.577669,64.3797821 143.963102,61.7756024 L145.603727,52.2443524 L158.884977,52.2443524 L160.525602,61.7756024 C163.911036,64.4839493 165.603727,67.9734978 165.603727,72.2443524 L165.603727,72.2443524 Z"
                      id=""
                      transform="translate(155.564665, 72.244352) rotate(14.000000) translate(-155.564665, -72.244352) "></path>
                <path d="M122.869792,28.921875 L126.307292,27.359375 L122.869792,25.796875 L121.307292,22.359375 L119.744792,25.796875 L116.307292,27.359375 L119.744792,28.921875 L121.307292,32.359375 L122.869792,28.921875 Z M113.416667,34.390625 L118.026042,32.359375 L113.416667,30.25 L111.307292,25.640625 L109.276042,30.25 L104.666667,32.359375 L109.276042,34.390625 L111.307292,39 L113.416667,34.390625 Z M124.666667,15.640625 L131.307292,15.640625 L131.307292,39 C131.307292,39.8854211 130.981774,40.6666633 130.330729,41.34375 C129.679684,42.0208367 128.911463,42.359375 128.026042,42.359375 L101.307292,42.359375 C100.421871,42.359375 99.6536491,42.0208367 99.0026042,41.34375 C98.3515592,40.6666633 98.0260417,39.8854211 98.0260417,39 L98.0260417,19 C98.0260417,18.1145789 98.3515592,17.3333367 99.0026042,16.65625 C99.6536491,15.9791633 100.421871,15.640625 101.307292,15.640625 L103.026042,15.640625 L106.307292,20.640625 L111.307292,20.640625 L108.026042,15.640625 L111.307292,15.640625 L114.666667,20.640625 L119.666667,20.640625 L116.307292,15.640625 L119.666667,15.640625 L123.026042,20.640625 L128.026042,20.640625 L124.666667,15.640625 Z"
                      id=""></path>
                <path d="M122.869792,199.588542 L126.307292,198.026042 L122.869792,196.463542 L121.307292,193.026042 L119.744792,196.463542 L116.307292,198.026042 L119.744792,199.588542 L121.307292,203.026042 L122.869792,199.588542 Z M113.416667,205.057292 L118.026042,203.026042 L113.416667,200.916667 L111.307292,196.307292 L109.276042,200.916667 L104.666667,203.026042 L109.276042,205.057292 L111.307292,209.666667 L113.416667,205.057292 Z M124.666667,186.307292 L131.307292,186.307292 L131.307292,209.666667 C131.307292,210.552088 130.981774,211.33333 130.330729,212.010417 C129.679684,212.687503 128.911463,213.026042 128.026042,213.026042 L101.307292,213.026042 C100.421871,213.026042 99.6536491,212.687503 99.0026042,212.010417 C98.3515592,211.33333 98.0260417,210.552088 98.0260417,209.666667 L98.0260417,189.666667 C98.0260417,188.781246 98.3515592,188.000003 99.0026042,187.322917 C99.6536491,186.64583 100.421871,186.307292 101.307292,186.307292 L103.026042,186.307292 L106.307292,191.307292 L111.307292,191.307292 L108.026042,186.307292 L111.307292,186.307292 L114.666667,191.307292 L119.666667,191.307292 L116.307292,186.307292 L119.666667,186.307292 L123.026042,191.307292 L128.026042,191.307292 L124.666667,186.307292 Z"
                      id=""></path>
            </g>
        </g>
    </g>
</svg>