<?xml version="1.0" encoding="UTF-8"?>
<svg width="256px" height="256px" viewBox="0 0 256 256" version="1.1" xmlns="http://www.w3.org/2000/svg">
    <!-- Generator: Sketch 46.2 (44496) - http://www.bohemiancoding.com/sketch -->
    <title>Tech Pattern Copy@1x</title>
    <desc>Created with Sketch.</desc>
    <defs></defs>
    <g id="Symbols" stroke="none" stroke-width="1" fill="none" fill-rule="evenodd" opacity="0.049999997">
        <g id="Tech-Pattern-Copy" fill="#000000">
            <g id="Group" transform="translate(-27.000000, -37.000000)">
                <path d="M107.867138,204.155606 L107.867138,223.960294 L90.2890128,223.960294 C90.2890128,218.882143 91.9882145,214.468125 95.386669,210.718106 C98.7851235,206.968088 102.945238,204.780609 107.867138,204.155606 L107.867138,204.155606 Z M90.2890128,238.960294 L90.2890128,228.999356 L130.367138,228.999356 L130.367138,238.960294 C130.367138,244.429071 128.394501,249.136055 124.449169,253.081388 C120.503837,257.02672 115.796853,258.999356 110.328075,258.999356 C104.859298,258.999356 100.152314,257.02672 96.2069815,253.081388 C92.2616493,249.136055 90.2890128,244.429071 90.2890128,238.960294 L90.2890128,238.960294 Z M112.789013,204.155606 C117.710912,204.780609 121.871027,206.968088 125.269482,210.718106 C128.667936,214.468125 130.367138,218.882143 130.367138,223.960294 L112.789013,223.960294 L112.789013,204.155606 Z"
                      id=""
                      transform="translate(115.308544, 232.807950) rotate(-17.000000) translate(-115.308544, -232.807950) "></path>
                <path d="M302.210938,303.460938 L302.210938,263.5 L264.710938,263.5 L264.710938,303.460938 L302.210938,303.460938 Z M283.460938,313.539062 C284.476568,313.539062 285.355465,313.167972 286.097656,312.425781 C286.839847,311.68359 287.210938,310.804693 287.210938,309.789062 C287.210938,308.773432 286.839847,307.894535 286.097656,307.152344 C285.355465,306.410153 284.476568,306.039062 283.460938,306.039062 C282.445307,306.039062 281.56641,306.410153 280.824219,307.152344 C280.082028,307.894535 279.710938,308.773432 279.710938,309.789062 C279.710938,310.804693 280.082028,311.68359 280.824219,312.425781 C281.56641,313.167972 282.445307,313.539062 283.460938,313.539062 L283.460938,313.539062 Z M301.039062,256 C302.757821,256 304.22265,256.605463 305.433594,257.816406 C306.644537,259.02735 307.25,260.492179 307.25,262.210938 L307.25,309.789062 C307.25,311.507821 306.644537,312.97265 305.433594,314.183594 C304.22265,315.394537 302.757821,316 301.039062,316 L266,316 C264.281241,316 262.816412,315.394537 261.605469,314.183594 C260.394525,312.97265 259.789062,311.507821 259.789062,309.789062 L259.789062,262.210938 C259.789062,260.492179 260.394525,259.02735 261.605469,257.816406 C262.816412,256.605463 264.281241,256 266,256 L301.039062,256 Z"
                      id=""></path>
                <path d="M46.2109375,47.4609375 L46.2109375,7.5 L8.7109375,7.5 L8.7109375,47.4609375 L46.2109375,47.4609375 Z M27.4609375,57.5390625 C28.4765676,57.5390625 29.355465,57.1679725 30.0976562,56.4257812 C30.8398475,55.68359 31.2109375,54.8046926 31.2109375,53.7890625 C31.2109375,52.7734324 30.8398475,51.894535 30.0976562,51.1523438 C29.355465,50.4101525 28.4765676,50.0390625 27.4609375,50.0390625 C26.4453074,50.0390625 25.56641,50.4101525 24.8242188,51.1523438 C24.0820275,51.894535 23.7109375,52.7734324 23.7109375,53.7890625 C23.7109375,54.8046926 24.0820275,55.68359 24.8242188,56.4257812 C25.56641,57.1679725 26.4453074,57.5390625 27.4609375,57.5390625 L27.4609375,57.5390625 Z M45.0390625,0 C46.7578211,0 48.2226502,0.605462695 49.4335938,1.81640625 C50.6445373,3.0273498 51.25,4.49217891 51.25,6.2109375 L51.25,53.7890625 C51.25,55.5078211 50.6445373,56.9726502 49.4335938,58.1835938 C48.2226502,59.3945373 46.7578211,60 45.0390625,60 L10,60 C8.28124141,60 6.8164123,59.3945373 5.60546875,58.1835938 C4.3945252,56.9726502 3.7890625,55.5078211 3.7890625,53.7890625 L3.7890625,6.2109375 C3.7890625,4.49217891 4.3945252,3.0273498 5.60546875,1.81640625 C6.8164123,0.605462695 8.28124141,0 10,0 L45.0390625,0 Z"
                      id=""></path>
                <path d="M302.210938,47.4609375 L302.210938,7.5 L264.710938,7.5 L264.710938,47.4609375 L302.210938,47.4609375 Z M283.460938,57.5390625 C284.476568,57.5390625 285.355465,57.1679725 286.097656,56.4257812 C286.839847,55.68359 287.210938,54.8046926 287.210938,53.7890625 C287.210938,52.7734324 286.839847,51.894535 286.097656,51.1523438 C285.355465,50.4101525 284.476568,50.0390625 283.460938,50.0390625 C282.445307,50.0390625 281.56641,50.4101525 280.824219,51.1523438 C280.082028,51.894535 279.710938,52.7734324 279.710938,53.7890625 C279.710938,54.8046926 280.082028,55.68359 280.824219,56.4257812 C281.56641,57.1679725 282.445307,57.5390625 283.460938,57.5390625 L283.460938,57.5390625 Z M301.039062,0 C302.757821,0 304.22265,0.605462695 305.433594,1.81640625 C306.644537,3.0273498 307.25,4.49217891 307.25,6.2109375 L307.25,53.7890625 C307.25,55.5078211 306.644537,56.9726502 305.433594,58.1835938 C304.22265,59.3945373 302.757821,60 301.039062,60 L266,60 C264.281241,60 262.816412,59.3945373 261.605469,58.1835938 C260.394525,56.9726502 259.789062,55.5078211 259.789062,53.7890625 L259.789062,6.2109375 C259.789062,4.49217891 260.394525,3.0273498 261.605469,1.81640625 C262.816412,0.605462695 264.281241,0 266,0 L301.039062,0 Z"
                      id=""></path>
                <path d="M46.2109375,303.460938 L46.2109375,263.5 L8.7109375,263.5 L8.7109375,303.460938 L46.2109375,303.460938 Z M27.4609375,313.539062 C28.4765676,313.539062 29.355465,313.167972 30.0976562,312.425781 C30.8398475,311.68359 31.2109375,310.804693 31.2109375,309.789062 C31.2109375,308.773432 30.8398475,307.894535 30.0976562,307.152344 C29.355465,306.410153 28.4765676,306.039062 27.4609375,306.039062 C26.4453074,306.039062 25.56641,306.410153 24.8242188,307.152344 C24.0820275,307.894535 23.7109375,308.773432 23.7109375,309.789062 C23.7109375,310.804693 24.0820275,311.68359 24.8242188,312.425781 C25.56641,313.167972 26.4453074,313.539062 27.4609375,313.539062 L27.4609375,313.539062 Z M45.0390625,256 C46.7578211,256 48.2226502,256.605463 49.4335938,257.816406 C50.6445373,259.02735 51.25,260.492179 51.25,262.210938 L51.25,309.789062 C51.25,311.507821 50.6445373,312.97265 49.4335938,314.183594 C48.2226502,315.394537 46.7578211,316 45.0390625,316 L10,316 C8.28124141,316 6.8164123,315.394537 5.60546875,314.183594 C4.3945252,312.97265 3.7890625,311.507821 3.7890625,309.789062 L3.7890625,262.210938 C3.7890625,260.492179 4.3945252,259.02735 5.60546875,257.816406 C6.8164123,256.605463 8.28124141,256 10,256 L45.0390625,256 Z"
                      id=""></path>
                <path d="M89.3677815,108.328719 C88.6646529,107.781841 85.481091,105.301397 79.8170002,100.887313 C74.1529094,96.4732281 69.8365463,93.1334178 66.8677815,90.8677815 L89.3677815,73.406844 L111.867781,90.8677815 C108.899017,93.1334178 104.602185,96.4536971 98.9771565,100.828719 C93.3521283,105.203741 90.1490354,107.703716 89.3677815,108.328719 L89.3677815,108.328719 Z M89.3677815,114.774031 L107.766219,100.359969 L111.867781,103.524031 L89.3677815,120.984969 L66.8677815,103.524031 L70.969344,100.359969 L89.3677815,114.774031 Z"
                      id=""
                      transform="translate(93.117781, 100.887313) rotate(25.000000) translate(-93.117781, -100.887313) "></path>
                <path d="M162.341268,166.841268 L162.341268,141.763143 L137.263143,141.763143 L137.263143,166.841268 L162.341268,166.841268 Z M172.302205,151.841268 L167.263143,151.841268 L167.263143,156.763143 L172.302205,156.763143 L172.302205,161.802205 L167.263143,161.802205 L167.263143,166.841268 C167.263143,168.169399 166.774866,169.321732 165.798299,170.298299 C164.821732,171.274866 163.669399,171.763143 162.341268,171.763143 L157.302205,171.763143 L157.302205,176.802205 L152.263143,176.802205 L152.263143,171.763143 L147.341268,171.763143 L147.341268,176.802205 L142.302205,176.802205 L142.302205,171.763143 L137.263143,171.763143 C135.935011,171.763143 134.782679,171.274866 133.806112,170.298299 C132.829544,169.321732 132.341268,168.169399 132.341268,166.841268 L132.341268,161.802205 L127.302205,161.802205 L127.302205,156.763143 L132.341268,156.763143 L132.341268,151.841268 L127.302205,151.841268 L127.302205,146.802205 L132.341268,146.802205 L132.341268,141.763143 C132.341268,140.435011 132.829544,139.282679 133.806112,138.306112 C134.782679,137.329544 135.935011,136.841268 137.263143,136.841268 L142.302205,136.841268 L142.302205,131.802205 L147.341268,131.802205 L147.341268,136.841268 L152.263143,136.841268 L152.263143,131.802205 L157.302205,131.802205 L157.302205,136.841268 L162.341268,136.841268 C163.669399,136.841268 164.821732,137.329544 165.798299,138.306112 C166.774866,139.282679 167.263143,140.435011 167.263143,141.763143 L167.263143,146.802205 L172.302205,146.802205 L172.302205,151.841268 Z M152.263143,156.763143 L152.263143,151.841268 L147.341268,151.841268 L147.341268,156.763143 L152.263143,156.763143 Z M157.302205,146.802205 L157.302205,161.802205 L142.302205,161.802205 L142.302205,146.802205 L157.302205,146.802205 Z"
                      id=""
                      transform="translate(153.552205, 158.052205) rotate(18.000000) translate(-153.552205, -158.052205) "></path>
                <path d="M42.125,192 L42.125,156.960938 L15.875,156.960938 L15.875,192 L42.125,192 Z M34.0390625,199.5 L34.0390625,197.039062 L23.9609375,197.039062 L23.9609375,199.5 L34.0390625,199.5 Z M38.9609375,149.460938 C40.9921977,149.460938 42.7499926,150.203118 44.234375,151.6875 C45.7187574,153.171882 46.4609375,154.929677 46.4609375,156.960938 L46.4609375,197.039062 C46.4609375,199.070323 45.7187574,200.828118 44.234375,202.3125 C42.7499926,203.796882 40.9921977,204.539062 38.9609375,204.539062 L19.0390625,204.539062 C17.0078023,204.539062 15.2500074,203.796882 13.765625,202.3125 C12.2812426,200.828118 11.5390625,199.070323 11.5390625,197.039062 L11.5390625,156.960938 C11.5390625,154.929677 12.2812426,153.171882 13.765625,151.6875 C15.2500074,150.203118 17.0078023,149.460938 19.0390625,149.460938 L38.9609375,149.460938 Z"
                      id=""
                      transform="translate(35.269531, 178.230469) rotate(-31.000000) translate(-35.269531, -178.230469) "></path>
                <path d="M298.125,192 L298.125,156.960938 L271.875,156.960938 L271.875,192 L298.125,192 Z M290.039062,199.5 L290.039062,197.039062 L279.960938,197.039062 L279.960938,199.5 L290.039062,199.5 Z M294.960938,149.460938 C296.992198,149.460938 298.749993,150.203118 300.234375,151.6875 C301.718757,153.171882 302.460938,154.929677 302.460938,156.960938 L302.460938,197.039062 C302.460938,199.070323 301.718757,200.828118 300.234375,202.3125 C298.749993,203.796882 296.992198,204.539062 294.960938,204.539062 L275.039062,204.539062 C273.007802,204.539062 271.250007,203.796882 269.765625,202.3125 C268.281243,200.828118 267.539062,199.070323 267.539062,197.039062 L267.539062,156.960938 C267.539062,154.929677 268.281243,153.171882 269.765625,151.6875 C271.250007,150.203118 273.007802,149.460938 275.039062,149.460938 L294.960938,149.460938 Z"
                      id=""
                      transform="translate(291.269531, 178.230469) rotate(-31.000000) translate(-291.269531, -178.230469) "></path>
                <path d="M233.039062,228.5 L233.039062,203.539062 L192.960938,203.539062 L192.960938,228.5 L233.039062,228.5 Z M218.039062,236 L218.039062,233.539062 L207.960938,233.539062 L207.960938,236 L218.039062,236 Z M237.960938,236 L243,236 L243,241.039062 L183,241.039062 L183,236 L188.039062,236 L188.039062,198.5 L237.960938,198.5 L237.960938,236 Z"
                      id=""></path>
                <path d="M213.366529,108.366529 C213.366529,112.507174 214.831358,116.042295 217.76106,118.971997 C220.690762,121.9017 224.225883,123.366529 228.366529,123.366529 C232.507174,123.366529 236.042295,121.9017 238.971997,118.971997 C241.9017,116.042295 243.366529,112.507174 243.366529,108.366529 C243.366529,104.225883 241.9017,100.690762 238.971997,97.7610599 C236.042295,94.8313578 232.507174,93.3665287 228.366529,93.3665287 C224.225883,93.3665287 220.690762,94.8313578 217.76106,97.7610599 C214.831358,100.690762 213.366529,104.225883 213.366529,108.366529 L213.366529,108.366529 Z M248.405591,108.366529 C248.405591,114.772811 245.866554,120.007133 240.788404,124.069654 L238.327466,138.366529 L218.405591,138.366529 L215.944654,124.069654 C210.866503,120.163384 208.327466,114.929061 208.327466,108.366529 C208.327466,101.803996 210.866503,96.5696732 215.944654,92.6634037 L218.405591,78.3665287 L238.327466,78.3665287 L240.788404,92.6634037 C245.866554,96.725924 248.405591,101.960247 248.405591,108.366529 L248.405591,108.366529 Z"
                      id=""
                      transform="translate(233.346997, 108.366529) rotate(14.000000) translate(-233.346997, -108.366529) "></path>
                <path d="M184.304688,43.3828125 L189.460938,41.0390625 L184.304688,38.6953125 L181.960938,33.5390625 L179.617188,38.6953125 L174.460938,41.0390625 L179.617188,43.3828125 L181.960938,48.5390625 L184.304688,43.3828125 Z M170.125,51.5859375 L177.039062,48.5390625 L170.125,45.375 L166.960938,38.4609375 L163.914062,45.375 L157,48.5390625 L163.914062,51.5859375 L166.960938,58.5 L170.125,51.5859375 Z M187,23.4609375 L196.960938,23.4609375 L196.960938,58.5 C196.960938,59.8281316 196.472661,60.9999949 195.496094,62.015625 C194.519526,63.0312551 193.367194,63.5390625 192.039062,63.5390625 L151.960938,63.5390625 C150.632806,63.5390625 149.480474,63.0312551 148.503906,62.015625 C147.527339,60.9999949 147.039062,59.8281316 147.039062,58.5 L147.039062,28.5 C147.039062,27.1718684 147.527339,26.0000051 148.503906,24.984375 C149.480474,23.9687449 150.632806,23.4609375 151.960938,23.4609375 L154.539062,23.4609375 L159.460938,30.9609375 L166.960938,30.9609375 L162.039062,23.4609375 L166.960938,23.4609375 L172,30.9609375 L179.5,30.9609375 L174.460938,23.4609375 L179.5,23.4609375 L184.539062,30.9609375 L192.039062,30.9609375 L187,23.4609375 Z"
                      id=""></path>
                <path d="M184.304688,299.382812 L189.460938,297.039062 L184.304688,294.695312 L181.960938,289.539062 L179.617188,294.695312 L174.460938,297.039062 L179.617188,299.382812 L181.960938,304.539062 L184.304688,299.382812 Z M170.125,307.585938 L177.039062,304.539062 L170.125,301.375 L166.960938,294.460938 L163.914062,301.375 L157,304.539062 L163.914062,307.585938 L166.960938,314.5 L170.125,307.585938 Z M187,279.460938 L196.960938,279.460938 L196.960938,314.5 C196.960938,315.828132 196.472661,316.999995 195.496094,318.015625 C194.519526,319.031255 193.367194,319.539062 192.039062,319.539062 L151.960938,319.539062 C150.632806,319.539062 149.480474,319.031255 148.503906,318.015625 C147.527339,316.999995 147.039062,315.828132 147.039062,314.5 L147.039062,284.5 C147.039062,283.171868 147.527339,282.000005 148.503906,280.984375 C149.480474,279.968745 150.632806,279.460938 151.960938,279.460938 L154.539062,279.460938 L159.460938,286.960938 L166.960938,286.960938 L162.039062,279.460938 L166.960938,279.460938 L172,286.960938 L179.5,286.960938 L174.460938,279.460938 L179.5,279.460938 L184.539062,286.960938 L192.039062,286.960938 L187,279.460938 Z"
                      id=""></path>
            </g>
        </g>
    </g>
</svg>