<?xml version="1.0" encoding="UTF-8"?>
<svg width="99px" height="18px" viewBox="0 0 99 18" version="1.1" xmlns="http://www.w3.org/2000/svg"
     xmlns:xlink="http://www.w3.org/1999/xlink">
    <!-- Generator: Sketch 46.2 (44496) - http://www.bohemiancoding.com/sketch -->
    <title>logo dark</title>
    <desc>Created with Sketch.</desc>
    <defs>
        <polygon id="path-1"
                 points="0 17.694293 98.4336279 17.694293 98.4336279 -0.000125581395 0 -0.000125581395"></polygon>
    </defs>
    <g id="Symbols" stroke="none" stroke-width="1" fill="none" fill-rule="evenodd">
        <g id="Footer_copyrights">
            <g id="Group-6">
                <g id="logo-dark">
                    <g id="logo">
                        <path d="M27.8308465,13.7572744 C28.1841488,13.7572744 28.4939163,13.7246233 28.7563814,13.6609953 C29.0180093,13.5969488 29.2683349,13.5086233 29.5069395,13.3951814 L29.5069395,11.8597395 L28.4491256,11.8597395 C28.3482419,11.8597395 28.2674512,11.831693 28.2101023,11.7764372 C28.1514977,11.7182512 28.1217767,11.6496 28.1217767,11.5679721 L28.1217767,10.6788558 L30.932707,10.6788558 L30.932707,14.0959256 C30.7171256,14.2529023 30.4944279,14.3868558 30.2637767,14.5028093 C30.0318698,14.6166698 29.784893,14.713786 29.5215907,14.785786 C29.2582884,14.8594605 28.9753116,14.9159721 28.6776837,14.9523907 C28.3788,14.9892279 28.0548,15.0072279 27.7065209,15.0072279 C27.0915907,15.0072279 26.5260558,14.9009023 26.0078233,14.6869953 C25.4891721,14.4718326 25.0412651,14.1750419 24.6620093,13.7916 C24.2856837,13.4123442 23.9914047,12.9552279 23.7787535,12.4261116 C23.5661023,11.8982512 23.4610326,11.3184837 23.4610326,10.691414 C23.4610326,10.0559721 23.5648465,9.47243721 23.7708,8.94415814 C23.9767535,8.41336744 24.2693581,7.95792558 24.6502884,7.57699535 C25.0282884,7.19522791 25.4891721,6.89927442 26.0304279,6.68913488 C26.5716837,6.47815814 27.1807535,6.37350698 27.8521953,6.37350698 C28.5420558,6.37350698 29.138986,6.47648372 29.6442419,6.6811814 C30.1486605,6.88546047 30.5748,7.15127442 30.9255907,7.47820465 L30.4701488,8.19025116 C30.3818233,8.33425116 30.2637767,8.40625116 30.1134977,8.40625116 C30.018893,8.40625116 29.9255442,8.37611163 29.8288465,8.31290233 C29.7032651,8.2383907 29.5755907,8.16597209 29.4462419,8.09229767 C29.3156372,8.01694884 29.1716372,7.95332093 29.0113116,7.89848372 C28.8560093,7.84364651 28.6776837,7.79885581 28.4817767,7.76369302 C28.2854512,7.72853023 28.058986,7.71304186 27.7998698,7.71304186 C27.3829395,7.71304186 27.006614,7.78169302 26.6692186,7.92234419 C26.3330791,8.06132093 26.0467535,8.26141395 25.8098233,8.52387907 C25.5712186,8.78466977 25.3878698,9.09694884 25.2585209,9.46322791 C25.1312651,9.82950698 25.0672186,10.2384837 25.0672186,10.691414 C25.0672186,11.1778326 25.1362884,11.6119256 25.2719163,11.9928558 C25.4075442,12.3691814 25.5988465,12.6919256 25.8441488,12.9518791 C26.0911256,13.2126698 26.3820558,13.4123442 26.7198698,13.5504837 C27.0589395,13.6886233 27.4302419,13.7572744 27.8308465,13.7572744 Z"
                              id="Fill-1" fill="#000000"></path>
                        <path d="M32.2327256,14.9141721 L32.2327256,8.92142791 L33.0795628,8.92142791 C33.2269116,8.92142791 33.3298884,8.9482186 33.3889116,9.00305581 C33.4475163,9.05705581 33.4868651,9.15082326 33.5065395,9.28268372 L33.5931907,10.0085442 C33.8075163,9.63807907 34.0590977,9.34463721 34.3454233,9.13073023 C34.6346791,8.91640465 34.9586791,8.80924186 35.316586,8.80924186 C35.6125395,8.80924186 35.8570047,8.87789302 36.0541674,9.01352093 L35.8653767,10.0951953 C35.8528186,10.1655209 35.8285395,10.2136605 35.7908651,10.2442186 C35.7498419,10.2735209 35.6991907,10.2864977 35.632214,10.2864977 C35.5731907,10.2864977 35.4932372,10.2743581 35.3936093,10.2475674 C35.2906326,10.2186837 35.1570977,10.2065442 34.9896558,10.2065442 C34.6903535,10.2065442 34.4337488,10.2890093 34.218586,10.4535209 C34.0034233,10.6192884 33.8238419,10.8620791 33.6748186,11.181893 L33.6748186,14.9141721 L32.2327256,14.9141721 Z"
                              id="Fill-3" fill="#000000"></path>
                        <mask id="mask-2" fill="white">
                            <use xlink:href="#path-1"></use>
                        </mask>
                        <g id="Clip-6"></g>
                        <path d="M36.8242326,14.9143395 L38.268,14.9143395 L38.268,8.92159535 L36.8242326,8.92159535 L36.8242326,14.9143395 Z M38.4823256,7.17392093 C38.4823256,7.29908372 38.4584651,7.41587442 38.407814,7.52554884 C38.3571628,7.63354884 38.2910233,7.72857209 38.2077209,7.81187442 C38.1227442,7.89266512 38.0235349,7.95796744 37.9126047,8.00736279 C37.7987442,8.05550233 37.6777674,8.0797814 37.5488372,8.0797814 C37.4245116,8.0797814 37.3073023,8.05550233 37.1963721,8.00736279 C37.0850233,7.95796744 36.987907,7.89266512 36.9066977,7.81187442 C36.8242326,7.72857209 36.7614419,7.63354884 36.7116279,7.52554884 C36.6622326,7.41587442 36.6379535,7.29908372 36.6379535,7.17392093 C36.6379535,7.0449907 36.6622326,6.92485116 36.7116279,6.81433953 C36.7614419,6.69922326 36.8242326,6.60168837 36.9066977,6.51922326 C36.987907,6.43759535 37.0850233,6.37187442 37.1963721,6.32289767 C37.3073023,6.27392093 37.4245116,6.25173488 37.5488372,6.25173488 C37.6777674,6.25173488 37.7987442,6.27392093 37.9126047,6.32289767 C38.0235349,6.37187442 38.1227442,6.43759535 38.2077209,6.51922326 C38.2910233,6.60168837 38.3571628,6.69922326 38.407814,6.81433953 C38.4584651,6.92485116 38.4823256,7.0449907 38.4823256,7.17392093 L38.4823256,7.17392093 Z"
                              id="Fill-5" fill="#000000" mask="url(#mask-2)"></path>
                        <path d="M42.0012419,13.8570279 C42.3005442,13.8570279 42.5554744,13.7959116 42.7647767,13.6699116 C42.9757535,13.5464233 43.1737535,13.3697721 43.361707,13.1374465 L43.361707,10.4516791 C43.1980326,10.2532605 43.0201256,10.1117721 42.8263116,10.0305628 C42.6341721,9.94809767 42.425707,9.90791163 42.2021721,9.90791163 C41.9849163,9.90791163 41.7885907,9.94809767 41.6119395,10.0305628 C41.4340326,10.1117721 41.2850093,10.2352605 41.1606837,10.4010279 C41.0380326,10.5688884 40.9451023,10.7773535 40.877707,11.0331209 C40.8132419,11.2880512 40.7780791,11.5881907 40.7780791,11.9356326 C40.7780791,12.2864233 40.8073814,12.5823767 40.8630558,12.8251674 C40.9204047,13.071307 41.0011953,13.2676326 41.1050093,13.4212605 C41.2096605,13.5757256 41.3390093,13.6870744 41.4909628,13.7548884 C41.6433349,13.8218651 41.8132884,13.8570279 42.0012419,13.8570279 L42.0012419,13.8570279 Z M43.9226372,14.9140047 C43.7346837,14.9140047 43.613707,14.8281907 43.5546837,14.6507023 L43.4353814,14.0730279 C43.3110558,14.2120047 43.181707,14.3409349 43.0444047,14.4531209 C42.9087767,14.5648884 42.7614279,14.6624233 42.6061256,14.7440512 C42.4474744,14.8281907 42.2758465,14.8897256 42.0962651,14.9361907 C41.9162651,14.9797256 41.7199395,15.0006558 41.5089628,15.0006558 C41.1820326,15.0006558 40.881893,14.9345163 40.6089628,14.7988884 C40.3364512,14.6624233 40.1011953,14.4627488 39.9048698,14.205307 C39.7085442,13.9453535 39.5565907,13.6263767 39.4502651,13.2429349 C39.3422651,12.8620047 39.2886837,12.4262372 39.2886837,11.9356326 C39.2886837,11.4910744 39.3489628,11.0787488 39.4699395,10.6986558 C39.5909163,10.3160512 39.7633814,9.98409767 39.9898465,9.70530698 C40.2138,9.42316744 40.4871488,9.2034 40.8011023,9.04558605 C41.1167302,8.89028372 41.4704512,8.80907442 41.865614,8.80907442 C42.2009163,8.80907442 42.4868233,8.86391163 42.7224977,8.9694 C42.9611023,9.07823721 43.1737535,9.22056279 43.361707,9.39972558 L43.361707,6.2338186 L44.8021256,6.2338186 L44.8021256,14.9140047 L43.9226372,14.9140047 Z"
                              id="Fill-7" fill="#000000" mask="url(#mask-2)"></path>
                        <path d="M55.1872884,10.6896977 C55.1872884,10.2263023 55.1253349,9.8097907 54.9993349,9.44183721 C54.8766837,9.07513953 54.6983581,8.76327907 54.467707,8.50751163 C54.2387302,8.2525814 53.9599395,8.05625581 53.6304977,7.92230233 C53.3002186,7.78583721 52.9305907,7.71676744 52.5170093,7.71676744 L50.8752419,7.71676744 L50.8752419,13.6634651 L52.5170093,13.6634651 C52.9305907,13.6634651 53.3002186,13.5952326 53.6304977,13.4596047 C53.9599395,13.3223023 54.2387302,13.1259767 54.467707,12.8710465 C54.6983581,12.6182093 54.8766837,12.3042558 54.9993349,11.9367209 C55.1253349,11.569186 55.1872884,11.153093 55.1872884,10.6896977 M56.7922186,10.6896977 C56.7922186,11.3092326 56.6884047,11.8776977 56.4841256,12.3959302 C56.2777535,12.9133256 55.9868233,13.360814 55.6146837,13.7333721 C55.2404512,14.1088605 54.7900326,14.3981163 54.2634279,14.6040698 C53.7368233,14.8104419 53.1549628,14.9142558 52.5170093,14.9142558 L49.2933349,14.9142558 L49.2933349,6.46765116 L52.5170093,6.46765116 C53.1549628,6.46765116 53.7368233,6.57146512 54.2634279,6.77909302 C54.7900326,6.98839535 55.2404512,7.27806977 55.6146837,7.6497907 C55.9868233,8.02193023 56.2777535,8.46732558 56.4841256,8.98346512 C56.6884047,9.50253488 56.7922186,10.0705814 56.7922186,10.6896977"
                              id="Fill-8" fill="#000000" mask="url(#mask-2)"></path>
                        <path d="M60.0127116,16.5607953 C59.970014,16.6629349 59.9130837,16.7391209 59.8444326,16.7922837 C59.7778744,16.8437721 59.6728047,16.8722372 59.5334093,16.8722372 L58.4575953,16.8722372 L59.5794558,14.4686093 L57.1561535,8.92042326 L58.4165721,8.92042326 C58.5346186,8.92042326 58.6229442,8.94679535 58.6848977,9.00121395 C58.7485256,9.05688837 58.7945721,9.11842326 58.8255488,9.18958605 L60.1060605,12.2960512 C60.1483395,12.3986093 60.1843395,12.5040977 60.2169907,12.6108419 C60.2475488,12.7213535 60.276014,12.8301907 60.2973628,12.9407023 C60.330014,12.8251674 60.3626651,12.7171674 60.4011767,12.6108419 C60.438014,12.5070279 60.4752698,12.3994465 60.5204791,12.2906093 L61.7239674,9.18958605 C61.754107,9.11088837 61.8064326,9.04809767 61.880107,8.99493488 C61.9504326,8.94595814 62.0320605,8.92042326 62.120386,8.92042326 L63.2782465,8.92042326 L60.0127116,16.5607953 Z"
                              id="Fill-9" fill="#000000" mask="url(#mask-2)"></path>
                        <path d="M63.9518233,14.9141721 L63.9518233,8.9205907 L64.832986,8.9205907 C65.0213581,8.9205907 65.1456837,9.00724186 65.2009395,9.1822186 L65.3026605,9.65607907 C65.4219628,9.5330093 65.5492186,9.41747442 65.6835907,9.31868372 C65.8183814,9.21570698 65.9598698,9.12989302 66.1101488,9.05370698 C66.2608465,8.98086977 66.4194977,8.92435814 66.5911256,8.88626512 C66.7627535,8.84524186 66.950707,8.82724186 67.1533116,8.82724186 C67.4806605,8.82724186 67.7699163,8.88207907 68.0235907,8.9930093 C68.2768465,9.10435814 68.4878233,9.25966047 68.6577767,9.46017209 C68.8264744,9.66277674 68.9554047,9.9013814 69.042893,10.1801721 C69.1303814,10.457707 69.1747535,10.7641256 69.1747535,11.1002651 L69.1747535,14.9141721 L67.7322419,14.9141721 L67.7322419,11.1002651 C67.7322419,10.7331488 67.6472651,10.4493349 67.4773116,10.2488233 C67.3090326,10.0487302 67.0536837,9.94826512 66.7154512,9.94826512 C66.4659628,9.94826512 66.2311256,10.0051953 66.014707,10.1165442 C65.7961953,10.2308233 65.5902419,10.3848698 65.3939163,10.5795209 L65.3939163,14.9141721 L63.9518233,14.9141721 Z"
                              id="Fill-10" fill="#000000" mask="url(#mask-2)"></path>
                        <path d="M72.2536326,14.0140047 C72.4009814,14.0140047 72.5382837,14.0018651 72.6626093,13.9746558 C72.7865163,13.9470279 72.9045628,13.9068419 73.015493,13.8520047 C73.1268419,13.7996791 73.2348419,13.7327023 73.3378186,13.6552605 C73.4407953,13.5757256 73.5454465,13.4840512 73.6484233,13.3756326 L73.6484233,12.3730744 C73.2281442,12.3730744 72.8781907,12.3986093 72.595214,12.4526093 C72.3143302,12.5049349 72.0870279,12.5719116 71.9149814,12.6560512 C71.7433535,12.7376791 71.6223767,12.8335395 71.5503767,12.9436326 C71.4783767,13.053307 71.4427953,13.1726093 71.4427953,13.3011209 C71.4427953,13.5568884 71.5168884,13.7402372 71.6667488,13.8503302 C71.8161907,13.9591674 72.0125163,14.0140047 72.2536326,14.0140047 L72.2536326,14.0140047 Z M75.0595395,14.9140047 L74.4094465,14.9140047 C74.271307,14.9140047 74.1666558,14.8939116 74.0883767,14.8528884 C74.0096791,14.8110279 73.9527488,14.7285628 73.9117256,14.6042372 L73.7840512,14.1776791 C73.6320977,14.3141442 73.4847488,14.4351209 73.3378186,14.5364233 C73.1921442,14.6410744 73.0401907,14.7260512 72.8848884,14.7988884 C72.7287488,14.8675395 72.5625628,14.9190279 72.3892605,14.9541907 C72.2126093,14.9893535 72.0183767,15.0073535 71.8040512,15.0073535 C71.5503767,15.0073535 71.3167953,14.9730279 71.1041442,14.9043767 C70.8898186,14.8348884 70.7035395,14.7344233 70.5499116,14.5971209 C70.3975395,14.4594 70.2765628,14.2902837 70.191586,14.0868419 C70.1049349,13.8838186 70.0626558,13.6477256 70.0626558,13.377307 C70.0626558,13.1520977 70.1229349,12.927307 70.2405628,12.7050279 C70.3615395,12.4860977 70.5561907,12.2864233 70.8349814,12.1080977 C71.1120977,11.9306093 71.4783767,11.7836791 71.9396791,11.6668884 C72.399307,11.5496791 72.9673535,11.4902372 73.6484233,11.4902372 L73.6484233,11.1377721 C73.6484233,10.7329814 73.5634465,10.4345163 73.3964233,10.2398651 C73.2264698,10.0447953 72.979493,9.94809767 72.6559116,9.94809767 C72.423586,9.94809767 72.2289349,9.97614419 72.0736326,10.0305628 C71.9166558,10.0854 71.7818651,10.1460977 71.6667488,10.2139116 C71.5503767,10.2825628 71.4457256,10.3428419 71.3494465,10.3985163 C71.2510744,10.4525163 71.1426558,10.4818186 71.0271209,10.4818186 C70.9283302,10.4818186 70.8458651,10.4533535 70.777214,10.4043767 C70.705214,10.3545628 70.6495395,10.2913535 70.6068419,10.2172605 L70.3439581,9.75595814 C71.0338186,9.12470233 71.8643302,8.80907442 72.837586,8.80907442 C73.1871209,8.80907442 73.5010744,8.86642326 73.7760977,8.98195814 C74.0523767,9.09623721 74.2847023,9.25572558 74.4726558,9.46000465 C74.6639581,9.66679535 74.8079581,9.90791163 74.9092605,10.1950744 C75.0088884,10.4780512 75.0595395,10.789493 75.0595395,11.1294 L75.0595395,14.9140047 Z"
                              id="Fill-11" fill="#000000" mask="url(#mask-2)"></path>
                        <path d="M76.3219256,14.9141721 L76.3219256,8.9205907 L77.2018326,8.9205907 C77.389786,8.9205907 77.5107628,9.00724186 77.5693674,9.1822186 L77.6643907,9.62845116 C77.7673674,9.50914884 77.8787163,9.40366047 77.9946698,9.30570698 C78.1093674,9.20817209 78.2311814,9.12486977 78.3609488,9.05370698 C78.4919721,8.9833814 78.6309488,8.92854419 78.7812279,8.88793953 C78.9331814,8.84775349 79.0968558,8.82724186 79.2751814,8.82724186 C79.6527628,8.82724186 79.9650419,8.92854419 80.2086698,9.13198605 C80.4522977,9.33668372 80.6339721,9.61045116 80.7532744,9.94826512 C80.8482977,9.74942791 80.9642512,9.57863721 81.1057395,9.43798605 C81.2455535,9.29398605 81.3991814,9.17886977 81.565786,9.08970698 C81.7344837,8.99970698 81.9111349,8.93440465 82.1007628,8.89170698 C82.2887163,8.8485907 82.4783442,8.82724186 82.6696465,8.82724186 C83.0007628,8.82724186 83.2958791,8.87789302 83.5512279,8.97919535 C83.8078326,9.07924186 84.0242512,9.22868372 84.2000651,9.42333488 C84.3767163,9.61714884 84.509414,9.85575349 84.6006698,10.1353814 C84.6923442,10.4158465 84.7367163,10.7369163 84.7367163,11.1002651 L84.7367163,14.9141721 L83.2958791,14.9141721 L83.2958791,11.1002651 C83.2958791,10.7168233 83.2109023,10.4296605 83.0434605,10.2366837 C82.8756,10.043707 82.6302977,9.94826512 82.3067163,9.94826512 C82.1593674,9.94826512 82.0220651,9.9742186 81.8960651,10.0248698 C81.7688093,10.0738465 81.6574605,10.1483581 81.5628558,10.2433814 C81.4678326,10.337986 81.3924837,10.4581256 81.3384837,10.6012884 C81.2815535,10.7469628 81.2568558,10.911893 81.2568558,11.1002651 L81.2568558,14.9141721 L79.8063907,14.9141721 L79.8063907,11.1002651 C79.8063907,10.6988233 79.7264372,10.4053814 79.5661116,10.2228698 C79.4024372,10.0391023 79.165507,9.94826512 78.8498791,9.94826512 C78.6422512,9.94826512 78.4492744,10.0005907 78.2676,10.1035674 C78.0871814,10.2065442 77.9193209,10.3480326 77.761507,10.5263581 L77.761507,14.9141721 L76.3219256,14.9141721 Z"
                              id="Fill-12" fill="#000000" mask="url(#mask-2)"></path>
                        <path d="M86.0169767,14.9143395 L87.4607442,14.9143395 L87.4607442,8.92075814 L86.0169767,8.92075814 L86.0169767,14.9143395 Z M87.675907,7.17224651 C87.675907,7.29908372 87.6520465,7.41587442 87.6013953,7.52303721 C87.5507442,7.63354884 87.4837674,7.72857209 87.4000465,7.80936279 C87.3150698,7.89266512 87.2187907,7.95629302 87.1057674,8.00485116 C86.9914884,8.05382791 86.8705116,8.07810698 86.7428372,8.07810698 C86.6176744,8.07810698 86.4992093,8.05382791 86.3895349,8.00485116 C86.2802791,7.95629302 86.1802326,7.89266512 86.1002791,7.80936279 C86.0169767,7.72857209 85.952093,7.63354884 85.9039535,7.52303721 C85.8549767,7.41587442 85.8302791,7.29908372 85.8302791,7.17224651 C85.8302791,7.0449907 85.8549767,6.92401395 85.9039535,6.8109907 C85.952093,6.69922326 86.0169767,6.60168837 86.1002791,6.51922326 C86.1802326,6.43759535 86.2802791,6.37187442 86.3895349,6.32289767 C86.4992093,6.27392093 86.6176744,6.25089767 86.7428372,6.25089767 C86.8705116,6.25089767 86.9914884,6.27392093 87.1057674,6.32289767 C87.2187907,6.37187442 87.3150698,6.43759535 87.4000465,6.51922326 C87.4837674,6.60168837 87.5507442,6.69922326 87.6013953,6.8109907 C87.6520465,6.92401395 87.675907,7.0449907 87.675907,7.17224651 L87.675907,7.17224651 Z"
                              id="Fill-13" fill="#000000" mask="url(#mask-2)"></path>
                        <path d="M93.0775814,10.1868698 C93.0348837,10.2433814 92.9926047,10.2856605 92.9515814,10.3162186 C92.9109767,10.3480326 92.8502791,10.3626837 92.7732558,10.3626837 C92.6983256,10.3626837 92.628,10.3404977 92.5576744,10.295707 C92.4890233,10.2504977 92.4040465,10.2006837 92.3056744,10.1441721 C92.2093953,10.0872419 92.0938605,10.0374279 91.9607442,9.9922186 C91.8251163,9.9465907 91.658093,9.92356744 91.4588372,9.92356744 C91.2051628,9.92356744 90.9828837,9.97086977 90.7932558,10.061707 C90.6036279,10.1533814 90.4433023,10.2856605 90.3173023,10.4560326 C90.1900465,10.6276605 90.0966977,10.8361256 90.0343256,11.0789163 C89.9698605,11.321707 89.9397209,11.5988233 89.9397209,11.9052419 C89.9397209,12.2233814 89.9740465,12.5113814 90.0426977,12.7575209 C90.1113488,13.0082651 90.2080465,13.2175674 90.3353023,13.3871023 C90.4654884,13.5570558 90.6233023,13.6843116 90.8045581,13.7713814 C90.987907,13.8580326 91.1938605,13.9028233 91.4245116,13.9028233 C91.6551628,13.9028233 91.8389302,13.8751953 91.982093,13.8178465 C92.1244186,13.7613349 92.2437209,13.6993814 92.34,13.6307302 C92.4383721,13.5624977 92.5233488,13.5013814 92.5953488,13.445707 C92.6686047,13.3875209 92.7473023,13.3607302 92.8389767,13.3607302 C92.9532558,13.3607302 93.0432558,13.4046837 93.1014419,13.4938465 L93.5158605,14.019614 C93.3555349,14.2075674 93.1822326,14.3632884 92.9959535,14.489707 C92.8075814,14.6165442 92.6133488,14.7186837 92.4136744,14.7923581 C92.2127442,14.8706372 92.0063721,14.9254744 91.7924651,14.9543581 C91.5781395,14.9861721 91.3654884,15.0008233 91.1545116,15.0008233 C90.7848837,15.0008233 90.4366047,14.9321721 90.1096744,14.7923581 C89.7810698,14.655893 89.4964186,14.4545442 89.2527907,14.189986 C89.0108372,13.9241721 88.816186,13.6001721 88.6755349,13.2175674 C88.5336279,12.8332884 88.4633023,12.3958465 88.4633023,11.9052419 C88.4633023,11.4640326 88.5252558,11.0575674 88.6529302,10.6824977 C88.7785116,10.3044977 88.9643721,9.98007907 89.2088372,9.70547442 C89.455814,9.43212558 89.7597209,9.21570698 90.1213953,9.06124186 C90.4843256,8.90426512 90.9004186,8.82724186 91.372186,8.82724186 C91.8184186,8.82724186 92.2110698,8.89756744 92.5493023,9.04240465 C92.8862791,9.18682326 93.1889302,9.39361395 93.4568372,9.66277674 L93.0775814,10.1868698 Z"
                              id="Fill-14" fill="#000000" mask="url(#mask-2)"></path>
                        <path d="M98.0411442,10.0871163 C98.0017953,10.149907 97.9611907,10.1951163 97.918493,10.2202326 C97.8745395,10.2466047 97.822214,10.257907 97.7548186,10.257907 C97.684493,10.257907 97.6095628,10.2382326 97.5291907,10.2005581 C97.4492372,10.1616279 97.3592372,10.1164186 97.2512372,10.0682791 C97.146586,10.0193023 97.0272837,9.97576744 96.8933302,9.936 C96.7577023,9.89832558 96.6007256,9.87865116 96.4173767,9.87865116 C96.1327256,9.87865116 95.9087721,9.93893023 95.7455163,10.0594884 C95.5835163,10.1804651 95.500214,10.3374419 95.500214,10.5333488 C95.500214,10.6610233 95.5391442,10.7690233 95.6257953,10.8565116 C95.7078419,10.9431628 95.8204465,11.0210233 95.9594233,11.0888372 C96.0967256,11.1533023 96.2537023,11.216093 96.4286791,11.2646512 C96.6019814,11.3182326 96.7819814,11.3755814 96.9670047,11.4387907 C97.1482605,11.5015814 97.3282605,11.5702326 97.5049116,11.6510233 C97.678214,11.7297209 97.8335163,11.8318605 97.9741674,11.9545116 C98.1114698,12.0771628 98.2228186,12.2236744 98.3061209,12.3961395 C98.3910977,12.5677674 98.4333767,12.7737209 98.4333767,13.0156744 C98.4333767,13.3036744 98.3781209,13.5690698 98.2734698,13.8135349 C98.170493,14.0567442 98.0164465,14.2660465 97.8121674,14.4439535 C97.6095628,14.6206047 97.3592372,14.7604186 97.0616093,14.8587907 C96.7639814,14.9567442 96.4224,15.0073953 96.0381209,15.0073953 C95.8321674,15.0073953 95.6291442,14.9893953 95.4332372,14.9500465 C95.2352372,14.9140465 95.0472837,14.8625581 94.8656093,14.7989302 C94.6839349,14.7311163 94.5156558,14.6532558 94.3637023,14.564093 C94.212586,14.4745116 94.0765395,14.3769767 93.9589116,14.2706512 L94.2908651,13.7214419 C94.3335628,13.6553023 94.3833767,13.6050698 94.4419814,13.569907 C94.5010047,13.533907 94.5746791,13.515907 94.6646791,13.515907 C94.7530047,13.515907 94.8379814,13.5431163 94.9162605,13.5929302 C94.9978884,13.6444186 95.0912372,13.6992558 95.1958884,13.7574419 C95.302214,13.8143721 95.4248651,13.8700465 95.5671907,13.9206977 C95.7078419,13.9713488 95.8874233,13.9968837 96.1084465,13.9968837 C96.2784,13.9968837 96.4240744,13.9763721 96.5484,13.9345116 C96.6710512,13.8947442 96.7723535,13.839907 96.852307,13.7729302 C96.9326791,13.7080465 96.9896093,13.6306047 97.0272837,13.5431163 C97.0649581,13.4556279 97.0829581,13.3647907 97.0829581,13.2722791 C97.0829581,13.1320465 97.0402605,13.0165116 96.9569581,12.9273488 C96.8736558,12.8373488 96.762307,12.759907 96.6250047,12.6929302 C96.4860279,12.6280465 96.3273767,12.5686047 96.1507256,12.5171163 C95.9728186,12.4622791 95.7928186,12.4057674 95.6065395,12.343814 C95.4231907,12.2822791 95.2402605,12.2073488 95.0652837,12.1244651 C94.8869581,12.0394884 94.728307,11.934 94.5910047,11.805907 C94.4537023,11.6773953 94.3431907,11.5195814 94.2598884,11.3324651 C94.1732372,11.1449302 94.132214,10.9209767 94.132214,10.656 C94.132214,10.4098605 94.1811907,10.1762791 94.2787256,9.954 C94.3750047,9.73213953 94.5190047,9.53874419 94.7086326,9.37255814 C94.896586,9.20762791 95.1322605,9.07493023 95.4152372,8.97697674 C95.6977953,8.87567442 96.0234698,8.82711628 96.3943535,8.82711628 C96.8066791,8.82711628 97.1809116,8.89409302 97.5212372,9.03097674 C97.858214,9.16744186 98.1407721,9.34744186 98.3680744,9.56888372 L98.0411442,10.0871163 Z"
                              id="Fill-15" fill="#000000" mask="url(#mask-2)"></path>
                        <path d="M17.7604326,9.12524651 L17.7604326,9.12524651 C16.8131302,4.63906047 11.8066186,0.417851163 8.37280465,0.0289674419 L8.37280465,0.0293860465 C8.09401395,0.206455814 7.86210698,0.427897674 7.6749907,0.686595349 C9.67550233,0.872037209 11.4219209,2.20989767 13.428293,4.35817674 C14.9867581,6.0284093 16.0290837,8.69575814 16.2848512,11.5062698 C16.3878279,12.6185023 16.3660605,13.7525023 16.2082465,14.8567814 C17.8165256,13.0948744 18.1748512,11.0847349 17.7604326,9.12524651"
                              id="Fill-16" fill="#F29100" mask="url(#mask-2)"></path>
                        <path d="M16.2850605,11.5064791 C16.3880372,12.618293 16.3662698,13.752293 16.2080372,14.8569907 C14.3804093,16.9173628 8.07287442,17.9366651 4.06892093,17.6453163 L4.06892093,17.6436419 C3.46403721,16.7829907 3.15594419,15.8327581 3.07766512,14.8373163 C8.16538605,15.788386 13.6126884,14.2504326 16.2850605,11.5064791"
                              id="Fill-17" fill="#EA5B25" mask="url(#mask-2)"></path>
                        <path d="M12.4665488,5.0593814 C13.6407349,6.92803256 13.4050605,10.2961256 12.0977581,12.2392884 L11.9307349,12.1986837 C11.0545953,11.8261256 10.1650605,10.9633814 9.38896744,9.85575349 C12.0098512,6.67645116 10.5581302,4.26152093 8.72380465,3.76673023 C8.17626977,3.61728837 7.59524651,3.63989302 7.07743256,3.86510233 C8.83850233,3.0262186 11.1688744,3.13547442 12.4665488,5.0593814"
                              id="Fill-18" fill="#0069B3" mask="url(#mask-2)"></path>
                        <path d="M7.0776,3.86526977 C7.59499535,3.64006047 8.1760186,3.61703721 8.72397209,3.76689767 C8.26350698,4.19806047 7.78127442,4.69494419 7.3023907,5.24247907 C7.18811163,4.7774093 7.10732093,4.3182 7.06169302,3.87280465 L7.06169302,3.87154884 C7.0683907,3.86903721 7.07173953,3.86652558 7.0776,3.86526977"
                              id="Fill-19" fill="#A9AA00" mask="url(#mask-2)"></path>
                        <path d="M11.9308186,12.1985581 C11.0546791,11.826 10.1651442,10.9632558 9.38905116,9.85562791 C8.46016744,8.5324186 7.69202791,6.85506977 7.30230698,5.24260465 C7.18802791,4.77711628 7.10723721,4.31832558 7.06202791,3.87251163 L7.06202791,3.87125581 C6.93309767,2.61293023 7.09928372,1.476 7.67486512,0.686511628 C7.8624,0.427813953 8.09388837,0.206372093 8.37267907,0.0297209302 L8.37267907,0.0288837209 C7.33453953,-0.0879069767 6.43914419,0.144 5.84556279,0.827581395 L5.84263256,0.827581395 C5.39221395,1.34455814 5.11174884,2.11855814 5.0728186,3.19395349 C4.9999814,3.7444186 4.94556279,4.52930233 4.93551628,5.4272093 C4.92714419,6.30460465 4.9648186,7.28706977 5.07365581,8.26995349 C5.48723721,11.9930233 6.94021395,15.6897209 10.9299349,13.3836279 C11.3816093,13.1211628 11.7734233,12.7234884 12.0978419,12.2395814 L11.9308186,12.1985581 Z"
                              id="Fill-20" fill="#62B8E8" mask="url(#mask-2)"></path>
                        <path d="M3.0777907,14.8373163 C2.91076744,12.7028512 3.80030233,10.3615953 5.07369767,8.27024651 C4.96486047,7.28694419 4.92718605,6.30447907 4.93555814,5.42750233 C2.8437907,7.36815349 0.330906977,11.1184326 0.0299302326,13.9469442 C-0.127046512,15.4212698 0.317511628,16.6435953 1.73993023,17.2279674 C2.33476744,17.4402 3.13974419,17.5775023 4.06904651,17.6453163 L4.06904651,17.6436419 C3.46374419,16.7829907 3.15565116,15.8327581 3.0777907,14.8373163"
                              id="Fill-21" fill="#A9AA00" mask="url(#mask-2)"></path>
                    </g>
                </g>
            </g>
        </g>
    </g>
</svg>